<svg width="20" height="20" viewBox="0 0 20 20" fill="none" xmlns="http://www.w3.org/2000/svg">
<path d="M6.66671 18.3334C7.12694 18.3334 7.50004 17.9603 7.50004 17.5C7.50004 17.0398 7.12694 16.6667 6.66671 16.6667C6.20647 16.6667 5.83337 17.0398 5.83337 17.5C5.83337 17.9603 6.20647 18.3334 6.66671 18.3334Z" stroke="#6B7280" stroke-width="1.66667" stroke-linecap="round" stroke-linejoin="round"/>
<path d="M15.8333 18.3334C16.2936 18.3334 16.6667 17.9603 16.6667 17.5C16.6667 17.0398 16.2936 16.6667 15.8333 16.6667C15.3731 16.6667 15 17.0398 15 17.5C15 17.9603 15.3731 18.3334 15.8333 18.3334Z" stroke="#6B7280" stroke-width="1.66667" stroke-linecap="round" stroke-linejoin="round"/>
<path d="M1.70837 1.70831H3.37504L5.59171 12.0583C5.67302 12.4374 5.88393 12.7762 6.18813 13.0165C6.49233 13.2568 6.8708 13.3836 7.25837 13.375H15.4084C15.7877 13.3744 16.1554 13.2444 16.4509 13.0065C16.7463 12.7686 16.9518 12.4371 17.0334 12.0666L18.4084 5.87498H4.26671" stroke="#6B7280" stroke-width="1.66667" stroke-linecap="round" stroke-linejoin="round"/>
</svg>
