<svg width="16" height="16" viewBox="0 0 16 16" fill="none" xmlns="http://www.w3.org/2000/svg">
<path d="M9.3335 12V4C9.3335 3.64638 9.19302 3.30724 8.94297 3.05719C8.69292 2.80714 8.35378 2.66667 8.00016 2.66667H2.66683C2.31321 2.66667 1.97407 2.80714 1.72402 3.05719C1.47397 3.30724 1.3335 3.64638 1.3335 4V11.3333C1.3335 11.5101 1.40373 11.6797 1.52876 11.8047C1.65378 11.9298 1.82335 12 2.00016 12H3.3335" stroke="#1A73E8" stroke-width="1.33333" stroke-linecap="round" stroke-linejoin="round"/>
<path d="M10 12H6" stroke="#1A73E8" stroke-width="1.33333" stroke-linecap="round" stroke-linejoin="round"/>
<path d="M12.6668 12H14.0002C14.177 12 14.3465 11.9298 14.4716 11.8047C14.5966 11.6797 14.6668 11.5101 14.6668 11.3333V8.9C14.6666 8.74871 14.6148 8.60201 14.5202 8.484L12.2002 5.584C12.1378 5.50592 12.0587 5.44285 11.9687 5.39946C11.8787 5.35608 11.7801 5.33347 11.6802 5.33333H9.3335" stroke="#1A73E8" stroke-width="1.33333" stroke-linecap="round" stroke-linejoin="round"/>
<path d="M11.3333 13.3333C12.0697 13.3333 12.6667 12.7364 12.6667 12C12.6667 11.2636 12.0697 10.6667 11.3333 10.6667C10.597 10.6667 10 11.2636 10 12C10 12.7364 10.597 13.3333 11.3333 13.3333Z" stroke="#1A73E8" stroke-width="1.33333" stroke-linecap="round" stroke-linejoin="round"/>
<path d="M4.66683 13.3333C5.40321 13.3333 6.00016 12.7364 6.00016 12C6.00016 11.2636 5.40321 10.6667 4.66683 10.6667C3.93045 10.6667 3.3335 11.2636 3.3335 12C3.3335 12.7364 3.93045 13.3333 4.66683 13.3333Z" stroke="#1A73E8" stroke-width="1.33333" stroke-linecap="round" stroke-linejoin="round"/>
</svg>
